<svg xmlns="http://www.w3.org/2000/svg" width="22" height="22" viewBox="0 0 22 22">
    <path data-name="사각형 1131" style="fill:none" d="M0 0h22v22H0z"/>
    <g data-name="그룹 223">
        <path data-name="패스 25935" d="M7.607 9.733h.03a4.876 4.876 0 0 0 4.169-2.3 4.7 4.7 0 0 0 .683-2.555A4.763 4.763 0 0 0 7.843 0h-.317a4.752 4.752 0 0 0-4.768 4.649v.23A4.756 4.756 0 0 0 7.4 9.733zm-3.391-4.59c-.005-.1-.005-.2 0-.307a3.214 3.214 0 0 1 .854-2.305A3.263 3.263 0 0 1 7.347 1.46h.307a3.284 3.284 0 0 1 3.375 3.132c0 .088.005.175 0 .263A3.287 3.287 0 0 1 7.9 8.275h-.308a3.284 3.284 0 0 1-3.376-3.132" style="fill:#fff" transform="translate(0 2)"/>
        <path data-name="패스 25936" d="M6.244 11.263A6.259 6.259 0 0 0 0 17.507v.728h1.458V17.5a4.8 4.8 0 0 1 4.785-4.78H9a4.8 4.8 0 0 1 4.788 4.78v.73h1.458v-.729A6.259 6.259 0 0 0 9 11.263z" style="fill:#fff" transform="translate(0 2)"/>
        <path data-name="패스 25937" d="M18.842 5.368h-1.457V8.5h-3.136v1.46h3.136v3.14h1.457V9.962h3.136V8.5h-3.136z" style="fill:#fff" transform="translate(0 2)"/>
    </g>
</svg>
