<svg xmlns="http://www.w3.org/2000/svg" width="24" height="24" viewBox="0 0 24 24">
    <g data-name="그룹 11235">
        <path data-name="사각형 2633" style="fill:none" d="M0 0h24v24H0z"/>
        <g data-name="그룹 10295">
            <path data-name="패스 26168" d="M20.726 0H1a1 1 0 0 0-1 1v12.956a1 1 0 0 0 1 1h19.726a1 1 0 0 0 1-1V1a1 1 0 0 0-1-1M12.67 7.181l-.452.382-1.312 1.109-.015.01a.115.115 0 0 1-.026.011.107.107 0 0 1-.041-.022l-.838-.708-.927-.783L1.487.784h18.756zM.783 1.215 8.2 7.48.783 13.745zm.7 12.961 7.32-6.184.674.569.838.708a.981.981 0 0 0 .085.063.885.885 0 0 0 .4.142h.088a.9.9 0 0 0 .4-.121.882.882 0 0 0 .123-.087l1.312-1.109.2-.168 7.32 6.184zM13.53 7.48l7.416-6.265v12.53z" style="fill:#1a1311;stroke:#262525;stroke-width:.5px" transform="translate(1 5.001)"/>
        </g>
    </g>
</svg>
