<svg xmlns="http://www.w3.org/2000/svg" width="24" height="24" viewBox="0 0 24 24">
    <g data-name="그룹 11236">
        <path data-name="사각형 2634" style="fill:none" d="M0 0h24v24H0z"/>
        <g data-name="그룹 298">
            <path data-name="패스 25971" d="M10.79 2.877a.718.718 0 0 1-.719.719H4.316a.719.719 0 0 1 0-1.439h5.756a.719.719 0 0 1 .719.72m3.6-.989v20.121a1.753 1.753 0 0 1-1.577 1.891H1.573A1.753 1.753 0 0 1 0 22.009V1.888A1.752 1.752 0 0 1 1.573 0h11.241a1.752 1.752 0 0 1 1.573 1.888m-1.438 17.693H1.439v2.428a.414.414 0 0 0 .36.451h10.79a.414.414 0 0 0 .36-.451zm0-15.265V1.888a.413.413 0 0 0-.36-.449H1.8a.413.413 0 0 0-.36.449v16.255h11.51s.006-13.352 0-13.826" transform="translate(5.001)" style="fill:#262525"/>
        </g>
    </g>
</svg>
