<svg xmlns="http://www.w3.org/2000/svg" width="49" height="49" viewBox="0 0 49 49">
    <circle data-name="타원 3" cx="24.5" cy="24.5" r="24.5" style="fill:red"/>
    <path data-name="패스 47" d="M3.152 1.677a1.877 1.877 0 0 1 2.808.175l1.928 2.48a1.872 1.872 0 0 1 .34 1.606l-.589 2.355a.73.73 0 0 0 .192.693l2.643 2.641a.73.73 0 0 0 .693.192l2.354-.588a1.877 1.877 0 0 1 1.607.34l2.48 1.928a1.876 1.876 0 0 1 .175 2.808l-1.113 1.112a2.989 2.989 0 0 1-3.094.755 20.042 20.042 0 0 1-7.538-4.754 20.04 20.04 0 0 1-4.754-7.537 2.99 2.99 0 0 1 .755-3.1l1.113-1.107z" transform="translate(14.876 14.873)" style="fill:#fff;fill-rule:evenodd"/>
</svg>
