<svg xmlns="http://www.w3.org/2000/svg" width="25" height="25" viewBox="0 0 25 25">
    <path data-name="사각형 1262" style="fill:none" d="M0 0h25v25H0z"/>
    <g data-name="그룹 422">
        <path data-name="패스 26040" d="M25.457 4.653h2.283v2.283a.457.457 0 1 0 .913 0V4.653h2.283a.457.457 0 0 0 0-.913h-2.283V1.457a.457.457 0 1 0-.913 0V3.74h-2.283a.457.457 0 0 0 0 .913" transform="translate(-21.196 3.511)" style="fill:#bbb;stroke:#bbb;stroke-width:.5px"/>
        <path data-name="패스 26041" d="M5.936 2.74H3.653V.457a.457.457 0 1 0-.913 0V2.74H.457a.457.457 0 1 0 0 .913H2.74v2.283a.457.457 0 1 0 .913 0V3.653h2.283a.457.457 0 0 0 0-.913" transform="translate(16.274 3)" style="fill:#bbb;stroke:#bbb;stroke-width:.5px"/>
        <path data-name="패스 26042" d="M9.936 26.74H7.653v-2.283a.457.457 0 1 0-.913 0v2.283H4.457a.457.457 0 0 0 0 .913H6.74v2.283a.457.457 0 1 0 .913 0v-2.283h2.283a.457.457 0 0 0 0-.913" transform="translate(11.502 -8.987)" style="fill:#bbb;stroke:#bbb;stroke-width:.5px"/>
        <path data-name="패스 26043" d="M26.188 14.469a1.142 1.142 0 0 0-.337-.813l-1.319-1.319a1.15 1.15 0 0 0-1.626 0L12.337 22.906a1.149 1.149 0 0 0 0 1.626l1.319 1.319a1.149 1.149 0 0 0 1.626 0l10.57-10.569a1.141 1.141 0 0 0 .337-.813M14.636 25.205a.243.243 0 0 1-.335 0l-1.319-1.319a.236.236 0 0 1 0-.334l7.261-7.262 1.657 1.654zm10.57-10.57L22.543 17.3l-1.653-1.655 2.662-2.662a.236.236 0 0 1 .334 0l1.32 1.317a.236.236 0 0 1 0 .334" transform="translate(-9 -3.521)" style="fill:#bbb;stroke:#bbb;stroke-width:.5px"/>
    </g>
</svg>
