<svg xmlns="http://www.w3.org/2000/svg" width="26" height="26" viewBox="0 0 26 26">
    <path data-name="사각형 1097" style="fill:none" d="M0 0h26v26H0z"/>
    <g data-name="그룹 378">
        <path data-name="패스 26019" d="M19.489 104.285H.416A.415.415 0 0 1 0 103.87v-7.463a.415.415 0 0 1 .415-.415h4.147a.415.415 0 0 1 .371.229l1.544 3.088h6.951l1.544-3.088a.415.415 0 0 1 .371-.229h4.146a.415.415 0 0 1 .415.415v7.463a.415.415 0 0 1-.415.415m-18.659-.83h18.244v-6.634H15.6l-1.544 3.088a.415.415 0 0 1-.371.229H6.221a.415.415 0 0 1-.371-.229l-1.544-3.088H.83z" transform="translate(3.048 -82.164)" style="fill:#262525;stroke:#262525;stroke-width:.5px"/>
        <path data-name="패스 26020" d="M127.05 10.78a.415.415 0 0 1-.388-.269L123.031.829h-2.615a.415.415 0 0 1 0-.829h2.9a.415.415 0 0 1 .388.269l3.732 9.95a.415.415 0 0 1-.388.56" transform="translate(-104.513 3.878)" style="fill:#262525;stroke:#262525;stroke-width:.5px"/>
        <path data-name="패스 26021" d="M.414 10.78a.415.415 0 0 1-.388-.56L3.758.269A.415.415 0 0 1 4.146 0h9.122a.415.415 0 1 1 0 .829H4.433L.8 10.511a.415.415 0 0 1-.388.269" transform="translate(3.05 3.878)" style="fill:#262525;stroke:#262525;stroke-width:.5px"/>
    </g>
</svg>
