<svg xmlns="http://www.w3.org/2000/svg" width="20" height="20" viewBox="0 0 20 20">
    <g data-name="그룹 10387">
        <path data-name="사각형 1504" style="fill:none" d="M0 0h20v20H0z"/>
        <path d="M9.618 4.5a2.547 2.547 0 0 0-1.937.909A2.547 2.547 0 0 0 5.743 4.5a2.341 2.341 0 0 0-2.368 2.383c0 1.646 1.463 2.966 3.681 5l.625.563.625-.563c2.217-2.037 3.681-3.358 3.681-5A2.341 2.341 0 0 0 9.618 4.5zm-1.672 6.817-.087.081-.178.161L7.5 11.4l-.087-.081a26.291 26.291 0 0 1-2.54-2.525 3.037 3.037 0 0 1-.836-1.909 1.723 1.723 0 0 1 .49-1.228 1.684 1.684 0 0 1 1.213-.493 1.9 1.9 0 0 1 1.43.673l.507.6.507-.6a1.891 1.891 0 0 1 1.43-.673 1.693 1.693 0 0 1 1.215.493 1.725 1.725 0 0 1 .49 1.228 3.053 3.053 0 0 1-.836 1.909 26.378 26.378 0 0 1-2.537 2.523z" transform="translate(2.125 2)" style="fill:#bbb;stroke:#bbb;stroke-width:.3px"/>
    </g>
</svg>
