<svg xmlns="http://www.w3.org/2000/svg" width="26" height="26" viewBox="0 0 26 26">
    <path data-name="사각형 1097" style="fill:none" d="M0 0h26v26H0z"/>
    <g data-name="그룹 381">
        <path data-name="패스 26022" d="M4.173 45.6A4.178 4.178 0 0 1 0 41.432a4.113 4.113 0 0 1 1.193-2.918.4.4 0 0 1 .029-.032l5.008-5.009a.393.393 0 0 1 .033-.03 4.149 4.149 0 0 1 2.394-1.161.417.417 0 0 1 .1.828 3.308 3.308 0 0 0-1.937.952.424.424 0 0 1-.035.031l-4.942 4.948a.381.381 0 0 1-.031.034 3.284 3.284 0 0 0-.978 2.357 3.342 3.342 0 0 0 3.339 3.338 3.284 3.284 0 0 0 2.357-.978.392.392 0 0 1 .035-.031l4.946-4.946a.4.4 0 0 1 .031-.034 3.338 3.338 0 0 0 .273-4.412.417.417 0 1 1 .658-.514 4.173 4.173 0 0 1-.312 5.487.4.4 0 0 1-.029.032l-5.008 5.008a.37.37 0 0 1-.032.029A4.113 4.113 0 0 1 4.173 45.6" transform="translate(3 -23.912)" style="fill:#262525;stroke:#262525;stroke-width:.5px"/>
        <path data-name="패스 26023" d="M68.59 13.331a.417.417 0 0 1-.045-.832 3.3 3.3 0 0 0 1.985-.957.376.376 0 0 1 .035-.031l4.946-4.946a.385.385 0 0 1 .031-.034 3.284 3.284 0 0 0 .978-2.357A3.342 3.342 0 0 0 73.181.835a3.284 3.284 0 0 0-2.357.978.407.407 0 0 1-.035.031L65.843 6.79a.414.414 0 0 1-.031.034 3.338 3.338 0 0 0-.324 4.344.417.417 0 0 1-.671.5 4.173 4.173 0 0 1 .376-5.4.422.422 0 0 1 .029-.032l5.008-5.013a.409.409 0 0 1 .032-.029A4.113 4.113 0 0 1 73.181 0a4.178 4.178 0 0 1 4.173 4.173 4.112 4.112 0 0 1-1.194 2.918.4.4 0 0 1-.029.032l-5.008 5.008a.408.408 0 0 1-.032.029 4.142 4.142 0 0 1-2.455 1.168h-.046" transform="translate(-54.323 5)" style="fill:#262525;stroke:#262525;stroke-width:.5px"/>
    </g>
</svg>
