<svg xmlns="http://www.w3.org/2000/svg" width="16" height="16" viewBox="0 0 16 16">
    <path data-name="사각형 1192" style="fill:none" d="M0 0h16v16H0z"/>
    <path data-name="패스 25973" d="M7.151 8.378a4.219 4.219 0 0 0 3.322-4.144 4.174 4.174 0 1 0-8.346 0 4.221 4.221 0 0 0 3.33 4.147A6.142 6.142 0 0 0 0 13.722a.415.415 0 0 0 .371.452.3.3 0 0 0 .038 0 .412.412 0 0 0 .409-.374A5.38 5.38 0 0 1 6.3 9.151a5.34 5.34 0 0 1 5.478 4.562.41.41 0 1 0 .815-.092 6.087 6.087 0 0 0-5.442-5.243m-4.2-4.144A3.354 3.354 0 1 1 6.3 7.636a3.382 3.382 0 0 1-3.353-3.4" transform="translate(1.5 1)" style="fill:#bcb3c5;stroke:#bcb3c5;stroke-width:.5px"/>
</svg>
