<svg xmlns="http://www.w3.org/2000/svg" width="14" height="14" viewBox="0 0 14 14">
    <defs>
        <clipPath id="o09h0x2qwa">
            <path data-name="사각형 1257" style="fill:#fff" d="M0 0h13.989v13.942H0z"/>
        </clipPath>
    </defs>
    <path data-name="사각형 1258" style="fill:none" d="M0 0h14v14H0z"/>
    <g data-name="그룹 399">
        <g data-name="그룹 398" style="clip-path:url(#o09h0x2qwa)">
            <path data-name="패스 26025" d="M10.247 0H1.36A1.361 1.361 0 0 0 0 1.36v8.887a1.361 1.361 0 0 0 1.36 1.36h8.887a1.361 1.361 0 0 0 1.36-1.36V1.36A1.361 1.361 0 0 0 10.247 0M1.36.907h8.887a.454.454 0 0 1 .453.453v6.658L9.157 6.475a1.361 1.361 0 0 0-1.923 0l-.5.5-1.408-1.406a1.361 1.361 0 0 0-1.923 0l-2.5 2.5V1.36A.455.455 0 0 1 1.36.907m8.887 9.793H1.36a.455.455 0 0 1-.453-.453v-.9l3.136-3.134a.454.454 0 0 1 .641 0l2.049 2.048L7.874 7.12a.454.454 0 0 1 .641 0L10.7 9.3v.946a.454.454 0 0 1-.453.45m-2.9-6.166a1.36 1.36 0 1 0-1.36-1.361 1.36 1.36 0 0 0 1.36 1.361m0-1.813a.453.453 0 1 1-.453.453.453.453 0 0 1 .453-.453z" style="fill:#fff"/>
            <path data-name="패스 26026" d="M13.151 3.2h-1v1.026h1a.853.853 0 0 1 .849.852v8.005a.853.853 0 0 1-.851.851H5.145a.852.852 0 0 1-.851-.851v-1.216H3.27v1.216a1.878 1.878 0 0 0 1.875 1.876h8.006a1.878 1.878 0 0 0 1.876-1.876V5.078A1.877 1.877 0 0 0 13.151 3.2" transform="translate(-1.037 -1.016)" style="fill:#fff"/>
        </g>
    </g>
</svg>
