<svg xmlns="http://www.w3.org/2000/svg" width="25" height="25" viewBox="0 0 25 25">
    <path data-name="사각형 1261" style="fill:none" d="M0 0h25v25H0z"/>
    <g data-name="그룹 489">
        <path data-name="패스 26083" d="M13.27 14.346a.359.359 0 0 1-.359-.359v-3.942A21.3 21.3 0 0 0 .573 14.274a.359.359 0 0 1-.556-.4 13.937 13.937 0 0 1 12.894-9.566V.358A.359.359 0 0 1 13.5.087L21.394 6.9a.359.359 0 0 1 0 .543L13.5 14.258a.359.359 0 0 1-.234.087m0-5.021a.359.359 0 0 1 .359.359V13.2l6.983-6.031-6.98-6.027v3.52a.359.359 0 0 1-.359.359 13.219 13.219 0 0 0-12.158 7.994 22.034 22.034 0 0 1 12.159-3.69" style="fill:#bbb;stroke:#bbb;stroke-width:.7px" transform="translate(1.741 5.327)"/>
    </g>
</svg>
