<svg xmlns="http://www.w3.org/2000/svg" width="49" height="49" viewBox="0 0 49 49">
    <defs>
        <clipPath id="di4g4ahuta">
            <path data-name="사각형 1365" style="fill:#bcb3c5" d="M0 0h18v16H0z"/>
        </clipPath>
    </defs>
    <g data-name="타원 3" style="stroke:#e0dde5;fill:none">
        <circle cx="24.5" cy="24.5" r="24.5" style="stroke:none"/>
        <circle cx="24.5" cy="24.5" r="24" style="fill:none"/>
    </g>
    <g data-name="그룹 537">
        <g data-name="그룹 536" style="clip-path:url(#di4g4ahuta)" transform="translate(16 17)">
            <path data-name="패스 26099" d="M415.432 86.16a5.588 5.588 0 0 1-1.693 4.012.667.667 0 0 0 0 .956.7.7 0 0 0 .973 0 6.935 6.935 0 0 0 0-9.935.7.7 0 0 0-.973 0 .667.667 0 0 0 0 .956 5.588 5.588 0 0 1 1.693 4.012" transform="translate(-398.807 -78.16)" style="fill:#bcb3c5"/>
            <path data-name="패스 26100" d="M353.174 147.818a2.474 2.474 0 0 1-.75 1.776.667.667 0 0 0 0 .956.7.7 0 0 0 .973 0 3.814 3.814 0 0 0 0-5.463.7.7 0 0 0-.973 0 .667.667 0 0 0 0 .956 2.474 2.474 0 0 1 .75 1.776" transform="translate(-339.677 -139.818)" style="fill:#bcb3c5"/>
            <path data-name="패스 26101" d="m10.049.113-5.962 4.06H.761A.757.757 0 0 0 0 4.921v6.143a.757.757 0 0 0 .761.748h3.3l5.984 4.076c.344.234.626.09.626-.322V.434c0-.411-.282-.556-.626-.322" style="fill:#bcb3c5"/>
        </g>
    </g>
</svg>
