<svg xmlns="http://www.w3.org/2000/svg" width="49" height="49" viewBox="0 0 49 49">
    <g data-name="타원 3" style="stroke:#e0dde5;fill:none">
        <circle cx="24.5" cy="24.5" r="24.5" style="stroke:none"/>
        <circle cx="24.5" cy="24.5" r="24" style="fill:none"/>
    </g>
    <path data-name="패스 49" d="m26.187 17.779 3.8 2.708a.729.729 0 0 0 .7-.056.746.746 0 0 0 .335-.624v-8.965a.746.746 0 0 0-.335-.624.729.729 0 0 0-.7-.056l-3.8 2.708a.747.747 0 0 0-.312.609v3.693a.747.747 0 0 0 .312.609z" transform="translate(3.474 9.675)" style="fill:#bcb3c5"/>
    <path data-name="패스 50" d="M13.5 21H4.73a2.466 2.466 0 0 1-2.48-2.437v-7.126A2.466 2.466 0 0 1 4.73 9h8.8a2.444 2.444 0 0 1 2.457 2.415v7.147A2.466 2.466 0 0 1 13.5 21z" transform="translate(12.25 10)" style="fill:#bcb3c5"/>
</svg>
