<svg xmlns="http://www.w3.org/2000/svg" width="52" height="52" viewBox="0 0 52 52">
    <defs>
        <clipPath id="oclvan7tza">
            <path data-name="사각형 1493" style="fill:none" d="M0 0h52v52H0z"/>
        </clipPath>
    </defs>
    <g data-name="패스 25960" style="fill:none">
        <path d="M26 0A26 26 0 1 1 0 26 26 26 0 0 1 26 0z" style="stroke:none"/>
        <path d="M26 3A22.927 22.927 0 0 0 9.737 9.737 22.927 22.927 0 0 0 3 26a22.927 22.927 0 0 0 6.737 16.263A22.927 22.927 0 0 0 26 49a22.927 22.927 0 0 0 16.263-6.737A22.927 22.927 0 0 0 49 26a22.927 22.927 0 0 0-6.737-16.263A22.927 22.927 0 0 0 26 3m0-3c14.36 0 26 11.64 26 26S40.36 52 26 52 0 40.36 0 26 11.64 0 26 0z" style="fill:#ededed;stroke:none"/>
    </g>
    <g data-name="그룹 10366">
        <g data-name="그룹 10365" style="clip-path:url(#oclvan7tza)">
            <path data-name="패스 26194" d="m12.265 40.825 6.523-6.525a11.831 11.831 0 0 0-6.523 6.523" style="fill:#e9e8e8"/>
            <path data-name="패스 26195" d="M8.236 40.613A23 23 0 0 1 40.612 8.236l2.126-2.125A26 26 0 0 0 6.11 42.739z" style="fill:#e9e8e8"/>
            <path data-name="패스 26196" d="m46.857 10.475 3.053-3.053A1.5 1.5 0 0 0 47.789 5.3l-2.872 2.873-2.135 2.134-7.9 7.9-2.49 2.493-7.177 7.176-2.515 2.509-3.912 3.915-6.523 6.523-1.958 1.957-2.134 2.137-3.43 3.43-.092.092a1.5 1.5 0 1 0 2.121 2.121l3.7-3.7a26 26 0 0 0 36.385-36.385m-9.075 35.254a22.949 22.949 0 0 1-20.734 1.464A21.783 21.783 0 0 1 14.665 46v-1.152a8 8 0 0 1 .447-2.628l5.249-5.249a9.308 9.308 0 0 1 3.233-.583h5.259a8.714 8.714 0 0 1 8.929 8.46zm4.481-3.466c-.445.445-.913.857-1.387 1.261a11.915 11.915 0 0 0-12.023-10.171h-4.874l2.375-2.375a9.666 9.666 0 0 0 8.026-4.257l.007-.009.007-.009a8.424 8.424 0 0 0 1.306-4.719c0-.114-.012-.225-.016-.339l9.009-9.01a22.946 22.946 0 0 1-2.433 29.628" style="fill:#e9e8e8"/>
            <path data-name="패스 26197" d="M26.224 16.021a6.407 6.407 0 0 1 4.713 1.89l2.2-2.2c-.051-.051-.1-.107-.148-.156a9.746 9.746 0 0 0-6.769-2.567 9.742 9.742 0 0 0-6.768 2.567 8.989 8.989 0 0 0 0 12.867c.167.159.346.305.525.45l2.2-2.2a5.746 5.746 0 0 1-2.259-4.679c0-3.456 2.649-5.964 6.3-5.964" style="fill:#e9e8e8"/>
        </g>
    </g>
</svg>
