<svg xmlns="http://www.w3.org/2000/svg" width="22" height="22" viewBox="0 0 22 22">
    <path data-name="사각형 1111" style="fill:none" d="M0 0h22v22H0z"/>
    <g data-name="패스 47" style="fill:#262525;fill-rule:evenodd">
        <path d="M13.673 17.305c-.305 0-.606-.052-.895-.153A18.947 18.947 0 0 1 1.227 5.6c-.358-1.019-.083-2.15.72-2.953L2.99 1.606a1.797 1.797 0 0 1 1.39-.525 1.81 1.81 0 0 1 1.316.695L7.503 4.1c.34.435.462 1.014.327 1.548L7.28 7.856a.637.637 0 0 0 .167.602l2.477 2.475a.63.63 0 0 0 .602.166l2.206-.551a1.81 1.81 0 0 1 1.549.327l2.324 1.807a1.81 1.81 0 0 1 .17 2.707l-1.044 1.043a2.94 2.94 0 0 1-2.057.873zM4.267 2.25a.63.63 0 0 0-.447.186L2.776 3.48c-.48.48-.648 1.143-.44 1.73a17.763 17.763 0 0 0 10.832 10.833c.162.057.332.086.506.086.444 0 .89-.192 1.225-.527l1.043-1.043a.634.634 0 0 0-.06-.948l-2.324-1.808a.637.637 0 0 0-.543-.115l-2.206.552a1.81 1.81 0 0 1-1.718-.476L6.615 9.288a1.818 1.818 0 0 1-.475-1.719l.551-2.206a.63.63 0 0 0-.115-.542L4.767 2.496a.634.634 0 0 0-.5-.245z" style="stroke:none" transform="translate(1.876 1.449)"/>
        <path d="M4.268 1.128c-.465 0-.913.184-1.244.514L1.983 2.682c-.746.747-1.074 1.861-.708 2.901A18.783 18.783 0 0 0 5.73 12.65a18.784 18.784 0 0 0 7.065 4.456c1.04.365 2.155.037 2.9-.708l1.043-1.043a1.759 1.759 0 0 0-.165-2.632l-2.324-1.807a1.759 1.759 0 0 0-1.506-.319l-2.206.552a.684.684 0 0 1-.65-.18L7.41 8.493a.684.684 0 0 1-.18-.65l.552-2.207a1.754 1.754 0 0 0-.318-1.505L5.656 1.807a1.759 1.759 0 0 0-1.388-.68m6.102 11.117c.142 0 .286-.018.427-.053l2.206-.551a.684.684 0 0 1 .585.123l2.325 1.809a.684.684 0 0 1 .064 1.022l-1.043 1.043c-.487.487-1.177.666-1.782.453a17.708 17.708 0 0 1-6.662-4.201 17.708 17.708 0 0 1-4.201-6.662c-.215-.605-.035-1.296.452-1.783l1.043-1.043a.684.684 0 0 1 1.023.064L6.616 4.79a.684.684 0 0 1 .124.585L6.188 7.58c-.15.6.026 1.234.463 1.671l2.475 2.476c.334.334.783.516 1.244.516M4.268 1.028a1.86 1.86 0 0 1 1.468.718L7.542 4.07c.348.446.474 1.041.336 1.59l-.552 2.208c-.049.198.01.41.154.554l2.477 2.475a.58.58 0 0 0 .554.154l2.207-.552a1.86 1.86 0 0 1 1.592.337l2.324 1.807a1.86 1.86 0 0 1 .173 2.782l-1.043 1.043a2.99 2.99 0 0 1-2.092.887c-.311 0-.618-.053-.911-.156A18.997 18.997 0 0 1 1.18 5.617c-.365-1.036-.085-2.188.731-3.004L2.954 1.57c.352-.35.818-.543 1.314-.543zm6.102 11.316c-.497 0-.963-.194-1.315-.545L6.58 9.323a1.868 1.868 0 0 1-.489-1.766l.552-2.206a.58.58 0 0 0-.106-.5l-1.81-2.325a.584.584 0 0 0-.872-.054L2.812 3.515c-.466.466-.63 1.11-.43 1.678a17.713 17.713 0 0 0 10.803 10.802c.156.056.32.083.49.083.43 0 .863-.186 1.188-.511l1.043-1.044a.584.584 0 0 0-.055-.873l-2.324-1.808a.591.591 0 0 0-.5-.105l-2.206.551a1.86 1.86 0 0 1-.451.056z" style="fill:#262525;stroke:none" transform="translate(1.876 1.449)"/>
    </g>
</svg>
