<svg xmlns="http://www.w3.org/2000/svg" width="22" height="22.089" viewBox="0 0 22 22.089">
    <path data-name="사각형 1142" style="fill:none" d="M0 0h22v22H0z"/>
    <g data-name="패스 53" style="fill:#999;stroke-linecap:round;stroke-linejoin:round">
        <path d="M15.428 14.803a4.29 4.29 0 0 1-4.278-4.278V5.303a4.283 4.283 0 0 1 4.278-4.278 4.283 4.283 0 0 1 4.278 4.278v5.222a4.29 4.29 0 0 1-4.278 4.278zm0-12.185a2.688 2.688 0 0 0-2.685 2.685v5.222a2.688 2.688 0 0 0 2.685 2.686 2.688 2.688 0 0 0 2.685-2.686V5.303a2.688 2.688 0 0 0-2.685-2.685z" style="stroke:none" transform="translate(-4.769 -.125)"/>
        <path d="M15.428 14.703a4.183 4.183 0 0 0 4.178-4.178V5.303a4.178 4.178 0 1 0-8.356 0v5.222a4.183 4.183 0 0 0 4.178 4.178m0-12.185a2.785 2.785 0 0 1 2.785 2.785v5.222a2.785 2.785 0 1 1-5.57 0V5.303a2.785 2.785 0 0 1 2.785-2.785m0 12.385a4.39 4.39 0 0 1-4.378-4.377V5.303A4.383 4.383 0 0 1 15.428.925a4.383 4.383 0 0 1 4.378 4.378v5.222a4.39 4.39 0 0 1-4.378 4.378zm0-12.185a2.588 2.588 0 0 0-2.585 2.585v5.222a2.588 2.588 0 0 0 2.585 2.586 2.588 2.588 0 0 0 2.585-2.586V5.303a2.588 2.588 0 0 0-2.585-2.585z" style="fill:#999;stroke:none" transform="translate(-4.769 -.125)"/>
    </g>
    <g data-name="패스 54" style="fill:#999;stroke-linecap:round;stroke-linejoin:round">
        <path d="M14.08 26.4h-1.592v-3.87a7.74 7.74 0 0 1-4.917-2.473 7.733 7.733 0 0 1-2.046-5.245v-2.537H7.118v2.537c0 3.4 2.766 6.167 6.166 6.167 3.4 0 6.167-2.766 6.167-6.167v-2.537H21.044v2.537a7.733 7.733 0 0 1-2.047 5.245 7.74 7.74 0 0 1-4.916 2.473v3.87z" style="stroke:none" transform="translate(-2.625 -4.412)"/>
        <path d="M5.625 12.375v2.437c0 3.989 3.065 7.275 6.963 7.627v3.862h1.393v-3.862c3.898-.352 6.963-3.638 6.963-7.627v-2.437H19.55v2.437a6.274 6.274 0 0 1-6.267 6.267 6.274 6.274 0 0 1-6.266-6.267v-2.437H5.625m0-.2h1.393c.11 0 .2.09.2.2v2.437a6.074 6.074 0 0 0 6.066 6.067 6.074 6.074 0 0 0 6.067-6.067v-2.437c0-.11.09-.2.2-.2h1.393c.11 0 .2.09.2.2v2.437a7.833 7.833 0 0 1-2.073 5.313 7.84 7.84 0 0 1-4.89 2.495v3.68a.2.2 0 0 1-.2.2h-1.393a.2.2 0 0 1-.2-.2v-3.68a7.84 7.84 0 0 1-4.89-2.495 7.833 7.833 0 0 1-2.073-5.313v-2.437c0-.11.09-.2.2-.2z" style="fill:#999;stroke:none" transform="translate(-2.625 -4.412)"/>
    </g>
</svg>
