<svg xmlns="http://www.w3.org/2000/svg" width="17.02" height="17" viewBox="0 0 17.02 17">
    <path data-name="패스 25975" d="M15.669 2.02H14.09a1.579 1.579 0 0 1-1.474-1.012A1.572 1.572 0 0 0 11.148 0H5.87A1.572 1.572 0 0 0 4.4 1.008 1.579 1.579 0 0 1 2.929 2.02H1.35A1.35 1.35 0 0 0 0 3.37v9.915a1.35 1.35 0 0 0 1.35 1.35H15.7a1.323 1.323 0 0 0 1.323-1.323V3.37a1.35 1.35 0 0 0-1.35-1.35M8.51 11.582a3.731 3.731 0 1 1 3.73-3.73 3.731 3.731 0 0 1-3.73 3.73" transform="translate(0 2)" style="fill:#262525"/>
    <path data-name="사각형 2717" style="fill:none" d="M0 0h17v17H0z"/>
</svg>
