<svg xmlns="http://www.w3.org/2000/svg" width="28" height="28" viewBox="0 0 28 28">
    <g data-name="그룹 10479">
        <path data-name="사각형 1554" style="fill:none" d="M0 0h28v28H0z"/>
        <g data-name="5084630_edit_pen_pencil_write_icon">
            <path data-name="패스 26205" d="M12.327 12.479H7.159a.722.722 0 1 0 0 1.436h5.168a.722.722 0 0 0 0-1.436z" transform="translate(2.237 -1.931)" style="fill:#262525"/>
            <path data-name="패스 26206" d="M10.409 16.69H7.184a.714.714 0 0 0 0 1.428h3.225a.714.714 0 0 0 0-1.428z" transform="translate(2.212 -2.91)" style="fill:#262525"/>
            <path data-name="패스 26207" d="M22.685 5.732a.7.7 0 0 0-.215-.507l-3.01-3.018a.722.722 0 0 0-1.014 0l-1.765 1.766H5.532A2.019 2.019 0 0 0 3.52 5.985v15.5A2.012 2.012 0 0 0 5.532 23.5h10.98a2 2 0 0 0 2-2.012V10.193l3.958-3.955a.722.722 0 0 0 .215-.507zm-6.142 16.331H5.532a.576.576 0 0 1-.576-.576V5.985a.584.584 0 0 1 .576-.576h9.713l-1.958 1.966a.706.706 0 0 0-.161.683v2.833a.706.706 0 0 0 .714.714h2.96a.722.722 0 0 0 .284-.054v9.936a.576.576 0 0 1-.576.576zm0-11.886h-1.989V8.143l4.4-4.4 2 2z" style="fill:#262525" transform="translate(2.897 .501)"/>
        </g>
    </g>
</svg>
