<svg xmlns="http://www.w3.org/2000/svg" width="28" height="28" viewBox="0 0 28 28">
    <g data-name="그룹 10411">
        <path data-name="사각형 1112" style="fill:none" d="M0 0h28v28H0z"/>
        <path data-name="패스 49" d="m26.3 19.887 5.161 3.451a1.044 1.044 0 0 0 .949-.071.937.937 0 0 0 .454-.8V11.046a.937.937 0 0 0-.454-.8 1.044 1.044 0 0 0-.949-.071L26.3 13.631a.935.935 0 0 0-.423.776v4.706a.935.935 0 0 0 .423.776z" transform="translate(-5.979 -2.808)" style="stroke-linecap:round;stroke-linejoin:round;stroke:#262525;stroke-width:1.5px;fill:none"/>
        <path data-name="패스 50" d="M15.225 24.1H5.109a2.978 2.978 0 0 1-2.859-3.063v-8.969A2.978 2.978 0 0 1 5.109 9h10.142a2.951 2.951 0 0 1 2.833 3.04v9a2.978 2.978 0 0 1-2.859 3.06z" transform="translate(-.97 -2.602)" style="stroke-miterlimit:10;stroke:#262525;stroke-width:1.5px;fill:none"/>
        <path data-name="다각형 3" d="M3.168 1.248a1 1 0 0 1 1.664 0l2.131 3.2A1 1 0 0 1 6.131 6H1.869a1 1 0 0 1-.832-1.555z" transform="rotate(90 1.5 11.5)" style="fill:#262525"/>
    </g>
</svg>
