<svg xmlns="http://www.w3.org/2000/svg" width="22" height="22" viewBox="0 0 22 22">
    <path data-name="사각형 1270" style="fill:none" d="M0 0h22v22H0z"/>
    <path data-name="패스 26046" d="M20.42 7.442a1.637 1.637 0 0 0-1.32-1.129l-5.08-.766L11.766.928A1.64 1.64 0 0 0 10.292 0a1.613 1.613 0 0 0-1.483.912L6.51 5.506l-5.088.712a1.649 1.649 0 0 0-.93 2.808l3.66 3.605-.9 5.059a1.649 1.649 0 0 0 2.388 1.752l4.56-2.366 4.535 2.415a1.649 1.649 0 0 0 2.4-1.726L16.3 12.7 20 9.134a1.64 1.64 0 0 0 .426-1.688" transform="translate(.751 .877)" style="fill:#fff;opacity:.3"/>
</svg>
