<svg xmlns="http://www.w3.org/2000/svg" width="22" height="22" viewBox="0 0 22 22">
    <path data-name="사각형 1197" style="fill:none" d="M0 0h22v22H0z"/>
    <path data-name="패스 25975" d="M20.254 2.611h-2.041A2.041 2.041 0 0 1 16.308 1.3a2.032 2.032 0 0 0-1.9-1.3H7.589a2.032 2.032 0 0 0-1.9 1.3 2.041 2.041 0 0 1-1.902 1.311H1.746A1.746 1.746 0 0 0 0 4.357v12.816a1.746 1.746 0 0 0 1.746 1.746H20.29a1.71 1.71 0 0 0 1.71-1.71V4.357a1.746 1.746 0 0 0-1.746-1.746M11 14.972a4.823 4.823 0 1 1 4.823-4.823A4.823 4.823 0 0 1 11 14.972" transform="translate(0 2)" style="fill:#bbb"/>
</svg>
