<svg xmlns="http://www.w3.org/2000/svg" width="92" height="92" viewBox="0 0 92 92">
    <g transform="translate(-142 -160)">
        <circle data-name="타원 22" cx="46" cy="46" r="46" transform="translate(142 160)" style="fill:none"/>
        <g data-name="그룹 10293">
            <g data-name="그룹 10292">
                <path data-name="패스 26167" d="M47.205 0H2.287A2.289 2.289 0 0 0 0 2.286v29.5a2.289 2.289 0 0 0 2.287 2.287h44.918a2.289 2.289 0 0 0 2.286-2.287v-29.5A2.289 2.289 0 0 0 47.205 0M28.858 16.356l-1.03.87-2.99 2.525a.247.247 0 0 1-.093.049.243.243 0 0 1-.094-.049l-1.908-1.612-2.111-1.783L3.386 1.785h42.72zM1.784 2.767l16.891 14.27L1.784 31.306zm1.6 29.521L20.058 18.2l1.535 1.3 1.907 1.613a2.236 2.236 0 0 0 .194.143 2.016 2.016 0 0 0 .9.323c.031 0 .062.008.094.009h.106a2.044 2.044 0 0 0 .907-.275 2.01 2.01 0 0 0 .279-.2l2.989-2.525.455-.383 16.682 14.083zm27.43-15.252L47.708 2.767v28.539z" style="stroke:#262525;fill:#1a1311" transform="translate(163.001 197.147)"/>
            </g>
            <path data-name="사각형 1453" transform="translate(175.247 179)" style="fill:#fff" d="M0 0h26v26H0z"/>
            <path data-name="패스 26208" d="m11.523 11.639 8.753-7.574-6.458 15.389zM3.372 7.333l16.283-4.052-8.8 7.613zm-2.948-.3 10.119 4.818 3.109 10.582L22.41 1.565z" transform="translate(175.077 183.935)" style="fill:#262525;stroke:#262525"/>
        </g>
    </g>
</svg>
