<svg data-name="그룹 10456" xmlns="http://www.w3.org/2000/svg" width="36" height="56" viewBox="0 0 36 56">
    <g data-name="사각형 1471" style="stroke:#e3ecf8;fill:#fff">
        <rect width="36" height="56" rx="6" style="stroke:none"/>
        <rect x=".5" y=".5" width="35" height="55" rx="5.5" style="fill:none"/>
    </g>
    <path data-name="선 268" transform="translate(0 21)" style="fill:none;stroke:#e3ecf8" d="M0 0h36"/>
    <path data-name="선 269" transform="translate(0 30)" style="fill:none;stroke:#e3ecf8" d="M0 0h36"/>
    <path data-name="선 270" transform="translate(0 39)" style="fill:none;stroke:#e3ecf8" d="M0 0h36"/>
    <path data-name="선 271" transform="translate(0 48)" style="fill:none;stroke:#e3ecf8" d="M0 0h36"/>
    <path data-name="선 273" transform="translate(6 8)" style="fill:none;stroke:#e3ecf8" d="M0 48V0"/>
    <path data-name="선 274" transform="translate(18 8)" style="fill:none;stroke:#e3ecf8" d="M0 48V0"/>
    <path data-name="선 275" transform="translate(30 8)" style="fill:none;stroke:#e3ecf8" d="M0 48V0"/>
    <path data-name="사각형 1477" d="M6 0h24a6 6 0 0 1 6 6v6H0V6a6 6 0 0 1 6-6z" style="fill:#92bef8"/>
    <text transform="translate(15 9)" style="font-size:8px;font-family:Roboto-Bold,Roboto;font-weight:700;fill:#fff"><tspan x="0" y="0">X</tspan></text>
</svg>
