<svg xmlns="http://www.w3.org/2000/svg" width="20" height="20" viewBox="0 0 20 20">
    <g data-name="그룹 11238">
        <path data-name="사각형 2636" style="fill:none" d="M0 0h20v20H0z"/>
        <g data-name="그룹 298">
            <path data-name="패스 25971" d="M8.4 2.239a.559.559 0 0 1-.559.559H3.359a.56.56 0 0 1 0-1.12h4.479a.559.559 0 0 1 .559.56m2.8-.77v15.659A1.364 1.364 0 0 1 9.972 18.6H1.224A1.364 1.364 0 0 1 0 17.127V1.469A1.363 1.363 0 0 1 1.224 0h8.748A1.363 1.363 0 0 1 11.2 1.469m-1.12 13.768H1.12v1.889a.322.322 0 0 0 .28.351h8.4a.322.322 0 0 0 .28-.351zm0-11.879V1.469a.322.322 0 0 0-.28-.35H1.4a.322.322 0 0 0-.28.35v12.644h8.957s.005-10.391 0-10.759" transform="translate(4.097 1)" style="fill:#bbb"/>
        </g>
    </g>
</svg>
