<svg xmlns="http://www.w3.org/2000/svg" width="22" height="22" viewBox="0 0 22 22">
    <path data-name="사각형 1167" style="fill:none;opacity:.3" d="M0 0h22v22H0z"/>
    <path data-name="패스 25957" d="M8.415 9.857a4.964 4.964 0 0 0 3.909-4.876 4.911 4.911 0 1 0-9.82 0 4.966 4.966 0 0 0 3.918 4.88A7.226 7.226 0 0 0 0 16.146a.488.488 0 0 0 .436.532.357.357 0 0 0 .044 0 .485.485 0 0 0 .48-.444 6.331 6.331 0 0 1 6.456-5.468 6.283 6.283 0 0 1 6.446 5.368.483.483 0 1 0 .959-.108 7.162 7.162 0 0 0-6.406-6.169M3.467 4.982a3.946 3.946 0 1 1 3.946 4 3.979 3.979 0 0 1-3.946-4" transform="translate(3.5 2.5)" style="fill:#262525;stroke:#262525;stroke-width:.5px"/>
</svg>
