<svg xmlns="http://www.w3.org/2000/svg" width="22" height="22" viewBox="0 0 22 22">
    <path data-name="사각형 1168" style="fill:none" d="M0 0h22v22H0z"/>
    <g data-name="그룹 261">
        <path data-name="패스 25958" d="M12.933 1.15v2.084h4.559v10.043H1.173V3.234h4.559V1.15zm0-1h-7.2a1.011 1.011 0 0 0-1.023 1v1.084H1.173a1.012 1.012 0 0 0-1.023 1v10.043a1.012 1.012 0 0 0 1.023 1h16.319a1.012 1.012 0 0 0 1.022-1V3.234a1.012 1.012 0 0 0-1.022-1h-3.537V1.15a1.012 1.012 0 0 0-1.022-1M9.5 5.121a2.936 2.936 0 0 1 2.965 2.9 3 3 0 0 1-2.358 2.838 2.3 2.3 0 0 1-.607.061 2.9 2.9 0 0 1 0-5.8m0-1a3.944 3.944 0 0 0-3.987 3.9 3.988 3.988 0 0 0 7.974 0A3.944 3.944 0 0 0 9.5 4.12" style="fill:#262525" transform="translate(1.85 3.85)"/>
        <path data-name="패스 25959" d="M12.933 1.15v2.084h4.559v10.043H1.173V3.234h4.559V1.15zm0-1h-7.2a1.011 1.011 0 0 0-1.023 1v1.084H1.173a1.012 1.012 0 0 0-1.023 1v10.043a1.012 1.012 0 0 0 1.023 1h16.319a1.012 1.012 0 0 0 1.022-1V3.234a1.012 1.012 0 0 0-1.022-1h-3.537V1.15a1.012 1.012 0 0 0-1.022-1M9.5 5.121a2.936 2.936 0 0 1 2.965 2.9 3 3 0 0 1-2.358 2.838 2.3 2.3 0 0 1-.607.061 2.9 2.9 0 0 1 0-5.8m0-1a3.944 3.944 0 0 0-3.987 3.9 3.988 3.988 0 0 0 7.974 0A3.944 3.944 0 0 0 9.5 4.12" style="stroke:#262525;stroke-width:.3px;fill:none" transform="translate(1.85 3.85)"/>
    </g>
</svg>
