<svg xmlns="http://www.w3.org/2000/svg" width="22" height="22" viewBox="0 0 22 22">
    <path data-name="사각형 1165" style="fill:none;opacity:.3" d="M0 0h22v22H0z"/>
    <g data-name="패스 53" style="fill:#262525;stroke-linecap:round;stroke-linejoin:round">
        <path d="M14.794 12.741a3.654 3.654 0 0 1-3.644-3.643v-4.43a3.648 3.648 0 0 1 3.643-3.643 3.648 3.648 0 0 1 3.644 3.643v4.43a3.654 3.654 0 0 1-3.643 3.643zm0-10.335a2.265 2.265 0 0 0-2.263 2.262v4.43a2.265 2.265 0 0 0 2.262 2.262 2.265 2.265 0 0 0 2.263-2.262v-4.43a2.265 2.265 0 0 0-2.263-2.262z" style="stroke:none" transform="translate(-3.793 1.017)"/>
        <path d="M14.793 12.641a3.548 3.548 0 0 0 3.544-3.543v-4.43a3.543 3.543 0 0 0-7.087 0v4.43a3.548 3.548 0 0 0 3.543 3.543m0-10.335a2.362 2.362 0 0 1 2.363 2.362v4.43a2.362 2.362 0 1 1-4.725 0v-4.43a2.362 2.362 0 0 1 2.362-2.362m0 10.535a3.754 3.754 0 0 1-3.743-3.743v-4.43A3.748 3.748 0 0 1 14.793.925a3.748 3.748 0 0 1 3.744 3.743v4.43a3.754 3.754 0 0 1-3.743 3.743zm0-10.335c-1.192 0-2.162.97-2.162 2.162v4.43c0 1.192.97 2.162 2.162 2.162 1.193 0 2.163-.97 2.163-2.162v-4.43c0-1.192-.97-2.162-2.163-2.162z" style="fill:#262525;stroke:none" transform="translate(-3.793 1.017)"/>
    </g>
    <g data-name="패스 54" style="fill:#262525;stroke-linecap:round;stroke-linejoin:round">
        <path d="M12.812 24.286H11.43V21.002A6.58 6.58 0 0 1 7.264 18.9a6.574 6.574 0 0 1-1.739-4.459V12.275H6.906V14.442a5.221 5.221 0 0 0 5.215 5.215 5.221 5.221 0 0 0 5.215-5.215V12.275H18.717V14.442a6.574 6.574 0 0 1-1.739 4.459 6.58 6.58 0 0 1-4.166 2.1v3.285z" style="stroke:none" transform="translate(-1.121 -4.327)"/>
        <path d="M5.625 12.375v2.067c0 3.383 2.6 6.17 5.906 6.47v3.274h1.18v-3.275c3.307-.299 5.906-3.086 5.906-6.469v-2.067h-1.18v2.067a5.321 5.321 0 0 1-5.316 5.315 5.321 5.321 0 0 1-5.315-5.315v-2.067H5.625m0-.2h1.181c.11 0 .2.09.2.2v2.067a5.12 5.12 0 0 0 5.115 5.115 5.12 5.12 0 0 0 5.115-5.115v-2.067c0-.11.09-.2.2-.2h1.181c.111 0 .2.09.2.2v2.067c0 1.68-.627 3.287-1.765 4.526a6.68 6.68 0 0 1-4.14 2.123v3.095a.2.2 0 0 1-.2.2H11.53a.2.2 0 0 1-.2-.2v-3.095a6.68 6.68 0 0 1-4.14-2.123 6.674 6.674 0 0 1-1.766-4.526v-2.067c0-.11.09-.2.2-.2z" style="fill:#262525;stroke:none" transform="translate(-1.121 -4.327)"/>
    </g>
</svg>
