<svg xmlns="http://www.w3.org/2000/svg" width="100" height="100" viewBox="0 0 100 100">
    <defs>
        <clipPath id="b470yx9lsa">
            <circle data-name="타원 414" cx="50" cy="50" r="50" style="fill:#999"/>
        </clipPath>
    </defs>
    <path data-name="사각형 1094" style="fill:none" d="M0 0h100v100H0z"/>
    <g data-name="그룹 99">
        <g data-name="타원 4" style="stroke:#ededed;stroke-width:5px;fill:none">
            <circle cx="50" cy="50" r="50" style="stroke:none"/>
            <circle cx="50" cy="50" r="47.5" style="fill:none"/>
        </g>
        <g data-name="마스크 그룹 29" style="clip-path:url(#b470yx9lsa)">
            <path data-name="빼기 1" d="M5.655 69.96 0 69.956v-2.793a24.117 24.117 0 0 1 24.219-23.958h10.7a24.117 24.117 0 0 1 24.215 23.958v2.79h-5.655v-2.79A18.487 18.487 0 0 0 34.915 48.8h-10.7a18.487 18.487 0 0 0-18.56 18.363v2.8zm23.912-32.625a18.971 18.971 0 0 1-13.485-5.328 18.553 18.553 0 0 1-5.382-13.34 18.553 18.553 0 0 1 5.382-13.339A18.972 18.972 0 0 1 29.567 0a18.972 18.972 0 0 1 13.485 5.328 18.553 18.553 0 0 1 5.386 13.339 17.976 17.976 0 0 1-2.583 9.758l-.024.031c-3.955 5.809-9.579 8.879-16.264 8.879zm0-31.741c-7.658 0-13.216 5.5-13.216 13.073S21.909 31.74 29.567 31.74s13.216-5.5 13.216-13.073S37.225 5.594 29.567 5.594z" transform="translate(18.933 22.241)" style="fill:#ededed"/>
        </g>
    </g>
</svg>
