<svg xmlns="http://www.w3.org/2000/svg" width="62" height="62" viewBox="0 0 62 62">
    <defs>
        <filter id="tkop162jya" x="0" y="0" width="62" height="62" filterUnits="userSpaceOnUse">
            <feOffset dx="5" dy="3"/>
            <feGaussianBlur stdDeviation="5" result="blur"/>
            <feFlood flood-opacity=".102"/>
            <feComposite operator="in" in2="blur"/>
            <feComposite in="SourceGraphic"/>
        </filter>
    </defs>
    <g data-name="그룹 11119">
        <g style="filter:url(#tkop162jya)">
            <circle data-name="타원 428" cx="16" cy="16" r="16" transform="translate(10.003 12)" style="fill:#fff"/>
        </g>
        <path data-name="패스 25975" d="M13.718 1.768h-1.382a1.382 1.382 0 0 1-1.29-.886A1.377 1.377 0 0 0 9.761 0H5.14a1.376 1.376 0 0 0-1.285.882 1.382 1.382 0 0 1-1.29.886H1.182A1.182 1.182 0 0 0 0 2.951v8.68a1.182 1.182 0 0 0 1.182 1.182h12.56a1.158 1.158 0 0 0 1.158-1.158v-8.7a1.182 1.182 0 0 0-1.182-1.182M7.45 10.141a3.266 3.266 0 1 1 3.266-3.266 3.266 3.266 0 0 1-3.266 3.266" transform="translate(18.053 21.594)" style="fill:#bbb"/>
    </g>
</svg>
