<svg xmlns="http://www.w3.org/2000/svg" width="18" height="18" viewBox="0 0 18 18">
    <g data-name="그룹 10462">
        <path data-name="사각형 1029" style="fill:none" d="M0 0h18v18H0z"/>
        <path data-name="패스 24932" d="M88.155 20.864a2.53 2.53 0 0 0 2.523-2.342 2.53 2.53 0 0 0 3.568-3.568 2.53 2.53 0 0 0 0-5.046 2.53 2.53 0 0 0-3.568-3.568 2.53 2.53 0 0 0-5.046 0 2.53 2.53 0 0 0-3.568 3.568 2.53 2.53 0 0 0 0 5.046 2.53 2.53 0 0 0 3.568 3.568 2.53 2.53 0 0 0 2.523 2.342z" transform="translate(-78.957 -3.233)" style="fill:#f68722"/>
        <path data-name="패스 24873" d="m1003.936 877.363 2.517 2.517 3.776-3.776" transform="translate(-998.187 -868.822)" style="stroke:#fff;stroke-linecap:round;stroke-linejoin:round;stroke-width:1.3px;fill:none"/>
    </g>
</svg>
