<svg xmlns="http://www.w3.org/2000/svg" width="12" height="12" viewBox="0 0 12 12">
    <path data-name="사각형 1183" style="fill:none" d="M0 0h12v12H0z"/>
    <path data-name="패스 24982" d="M8.37 78.424H.318a.318.318 0 1 1 0-.636H8.37a.318.318 0 1 1 0 .636" transform="translate(1.5 -66.788)" style="stroke:#bcb3c5;stroke-width:.3px;fill:#bcb3c5"/>
    <path data-name="패스 24983" d="M9.011 2.071 6.1.053a.3.3 0 0 0-.411.075L1.484 6.2a.3.3 0 0 0-.05.131l-.477 3.8a.3.3 0 0 0 .43.3l3.39-1.783a.3.3 0 0 0 .105-.093l4.2-6.069a.3.3 0 0 0-.075-.411" transform="translate(1.046 .146)" style="fill:#bcb3c5"/>
</svg>
