<svg xmlns="http://www.w3.org/2000/svg" width="22" height="22" viewBox="0 0 22 22">
    <path data-name="사각형 1150" style="fill:none" d="M0 0h22v22H0z"/>
    <path d="M15.975 4.5a5.14 5.14 0 0 0-3.91 1.834A5.14 5.14 0 0 0 8.155 4.5a4.725 4.725 0 0 0-4.78 4.809c0 3.321 2.954 5.987 7.428 10.1l1.261 1.136 1.261-1.136c4.475-4.111 7.428-6.777 7.428-10.1A4.725 4.725 0 0 0 15.975 4.5zM12.6 18.258l-.175.163-.359.326-.359-.326-.175-.163a53.062 53.062 0 0 1-5.126-5.1 6.13 6.13 0 0 1-1.69-3.849 3.478 3.478 0 0 1 .99-2.478 3.4 3.4 0 0 1 2.448-.994 3.834 3.834 0 0 1 2.887 1.358l1.024 1.215 1.024-1.216a3.818 3.818 0 0 1 2.887-1.358 3.417 3.417 0 0 1 2.452.994 3.481 3.481 0 0 1 .99 2.478 6.162 6.162 0 0 1-1.688 3.852 53.238 53.238 0 0 1-5.13 5.1z" transform="translate(-1.375 -1.5)" style="fill:#999"/>
</svg>
