<svg xmlns="http://www.w3.org/2000/svg" width="20" height="20" viewBox="0 0 20 20">
    <path data-name="사각형 1436" style="fill:none" d="M0 0h20v20H0z"/>
    <g data-name="그룹 10246">
        <path data-name="패스 26145" d="M15.428 16.284 13.9 5.956v-.029a1.825 1.825 0 0 0-1.746-1.786H10.69V2.972a2.972 2.972 0 1 0-5.943 0v1.17H3.283a1.826 1.826 0 0 0-1.746 1.786v.028L.009 16.284a.839.839 0 0 0-.009.123v.03a2 2 0 0 0 .354 1.21 1.5 1.5 0 0 0 1.244.621h12.241a1.5 1.5 0 0 0 1.244-.621 2 2 0 0 0 .354-1.21v-.029a.845.845 0 0 0-.009-.123M7.719.646a2.328 2.328 0 0 1 2.325 2.325v1.17H5.393V2.972A2.328 2.328 0 0 1 7.719.646m7.072 15.79a1.378 1.378 0 0 1-.229.828.858.858 0 0 1-.722.356H1.6a.858.858 0 0 1-.722-.356 1.379 1.379 0 0 1-.229-.828v-.03a.182.182 0 0 1 0-.029L2.175 6.043v-.072a1.182 1.182 0 0 1 1.1-1.183h1.472v2.156a.323.323 0 0 0 .646 0V4.788h4.65v2.156a.323.323 0 0 0 .646 0V4.788h1.464a1.182 1.182 0 0 1 1.1 1.183V6.042l1.522 10.307v.029a.18.18 0 0 1 0 .029z" transform="translate(2.2 .747)" style="stroke:#f68722;stroke-width:.5px;fill:#f68722"/>
        <path data-name="패스 26161" d="M1.89 6.169c.34.085.256-1.954 1.784-1.784s8.579 0 8.579 0a4.186 4.186 0 0 1 1.528 1.784c.255.934 1.274 10.193 1.274 10.193a2.036 2.036 0 0 1-2.208 1.7c-1.954-.085-10.958 0-10.958 0s-1.953-.425-1.784-2.209S1.89 6.169 1.89 6.169z" style="fill:#f68722" transform="translate(2.2 .747)"/>
    </g>
</svg>
