<svg xmlns="http://www.w3.org/2000/svg" width="22" height="22" viewBox="0 0 22 22">
    <g data-name="패스 86" style="stroke-linecap:round;stroke-miterlimit:10;fill:none">
        <path d="M24.214 17.266a.933.933 0 0 1 .168-.622 1.716 1.716 0 0 1 .107-.158 8.255 8.255 0 0 0 1.406-4.6 8.668 8.668 0 0 0-8.851-8.51 8.79 8.79 0 0 0-8.678 6.773 8.189 8.189 0 0 0-.188 1.743 8.644 8.644 0 0 0 8.713 8.617 10.5 10.5 0 0 0 2.405-.392 16.01 16.01 0 0 0 1.294-.423 1.347 1.347 0 0 1 .474-.087 1.325 1.325 0 0 1 .515.1l2.889 1.024a.689.689 0 0 0 .2.051.408.408 0 0 0 .408-.408.655.655 0 0 0-.025-.138z" style="stroke:none" transform="translate(-6.178 -1.375)"/>
        <path d="M16.891 19.108c.544 0 1.414-.172 2.036-.343.49-.134 1.006-.32 1.164-.38l.005-.002c.31-.118.635-.177.966-.178h.007c.348 0 .686.065 1.008.193l1.112.395-.324-1.154c-.147-.529-.043-1.101.309-1.702l.008-.014c.05-.084.106-.167.165-.247a6.835 6.835 0 0 0 1.148-3.796c.006-1.83-.718-3.568-2.04-4.894-1.422-1.426-3.343-2.211-5.41-2.211-3.526 0-6.6 2.384-7.31 5.671a6.8 6.8 0 0 0-.157 1.445c0 1.917.749 3.722 2.109 5.082 1.375 1.377 3.224 2.135 5.204 2.135m7.777 1.674a.69.69 0 0 1-.199-.05l-2.89-1.025a1.325 1.325 0 0 0-.988-.015c-.148.057-.718.265-1.294.423-.576.158-1.626.393-2.406.393-4.902 0-8.713-3.914-8.713-8.617 0-.587.063-1.17.188-1.743.836-3.863 4.403-6.773 8.678-6.773 4.902 0 8.867 3.811 8.851 8.51a8.255 8.255 0 0 1-1.406 4.601c-.038.05-.074.103-.107.158-.107.183-.219.439-.168.622l.836 2.97a.656.656 0 0 1 .026.138.408.408 0 0 1-.408.408z" style="fill:#999;stroke:none" transform="translate(-6.178 -1.375)"/>
    </g>
    <path data-name="사각형 1152" style="fill:none" d="M0 0h22v22H0z"/>
</svg>
