<svg xmlns="http://www.w3.org/2000/svg" width="22" height="22" viewBox="0 0 22 22">
    <path data-name="사각형 1152" style="fill:none" d="M0 0h22v22H0z"/>
    <g data-name="패스 86" style="fill:transparent;stroke-linecap:round;stroke-miterlimit:10">
        <path d="m24.23 19.904-2.4-.85a2.014 2.014 0 0 0-.76-.149h-.007c-.246 0-.488.045-.72.132-.008.004-.609.233-1.231.403-.618.17-1.57.368-2.22.368-2.168 0-4.192-.831-5.7-2.34a7.84 7.84 0 0 1-2.314-5.577c0-.535.058-1.071.172-1.594.374-1.729 1.368-3.303 2.8-4.435a8.4 8.4 0 0 1 5.194-1.787c2.255 0 4.353.858 5.906 2.417 1.455 1.46 2.252 3.373 2.245 5.39a7.53 7.53 0 0 1-1.276 4.198 2.425 2.425 0 0 0-.137.204l-.002.003-.002.004c-.252.43-.333.822-.239 1.162l.69 2.45z" style="stroke:none" transform="translate(-6.178 -1.375)"/>
        <path d="M16.891 19.108c.544 0 1.414-.172 2.036-.343.49-.134 1.006-.32 1.164-.38l.005-.002c.31-.118.635-.177.966-.178h.007c.348 0 .686.065 1.008.193l1.112.395-.324-1.154c-.147-.529-.043-1.101.309-1.702l.008-.014c.05-.084.106-.167.165-.247a6.835 6.835 0 0 0 1.148-3.796c.006-1.83-.718-3.568-2.04-4.894-1.422-1.426-3.343-2.211-5.41-2.211-3.526 0-6.6 2.384-7.31 5.671a6.8 6.8 0 0 0-.157 1.445c0 1.917.749 3.722 2.109 5.082 1.375 1.377 3.224 2.135 5.204 2.135m7.777 1.674a.69.69 0 0 1-.199-.05l-2.89-1.025a1.325 1.325 0 0 0-.988-.015c-.148.057-.718.265-1.294.423-.576.158-1.626.393-2.406.393-4.902 0-8.713-3.914-8.713-8.617 0-.587.063-1.17.188-1.743.836-3.863 4.403-6.773 8.678-6.773 4.902 0 8.867 3.811 8.851 8.51a8.255 8.255 0 0 1-1.406 4.601c-.038.05-.074.103-.107.158-.107.183-.219.439-.168.622l.836 2.97a.656.656 0 0 1 .026.138.408.408 0 0 1-.408.408z" style="fill:#999;stroke:none" transform="translate(-6.178 -1.375)"/>
    </g>
    <path data-name="패스 26122" d="M15.03 17.453c.348.2 2.9.958 2.9.958a26.252 26.252 0 0 0-.726-3.338c-.146.029 3.92-4.529.349-9.377S7.019 3.229 6.118 4.1 1.27 9.151 2.982 13.07s4.325 4.906 5.748 5.08a8.941 8.941 0 0 0 4.79-.232c2.671-.726 1.163-.668 1.51-.465z" style="fill:#999"/>
</svg>
