<svg xmlns="http://www.w3.org/2000/svg" width="22" height="22" viewBox="0 0 22 22">
    <g transform="translate(-333 -25)">
        <path data-name="사각형 1150" style="fill:none" d="M0 0h22v22H0z" transform="translate(333 25)"/>
        <g data-name="그룹 567">
            <g data-name="패스 24583" style="stroke-linejoin:round;stroke-linecap:round;fill:none">
                <path d="m456.3 191.462-2.268-3.964v-4.413a5.974 5.974 0 1 0-11.948 0v4.415l-2.269 3.964a.482.482 0 0 0 .414.723h15.658a.482.482 0 0 0 .413-.725z" style="stroke:none" transform="translate(-104.053 -149.812)"/>
                <path d="m454.468 190.885-1.569-2.741a1.3 1.3 0 0 1-.171-.646v-4.413c0-2.607-2.097-4.728-4.675-4.728-2.577 0-4.674 2.121-4.674 4.728v4.413c0 .227-.059.45-.171.646l-1.569 2.74h12.829m1.414 1.3h-15.657a.482.482 0 0 1-.414-.722l2.268-3.964v-4.413c0-3.33 2.675-6.028 5.974-6.028 3.3 0 5.975 2.699 5.975 6.028v4.413l2.268 3.964a.482.482 0 0 1-.414.723z" style="fill:#333;stroke:none" transform="translate(-104.053 -149.812)"/>
            </g>
            <path data-name="패스 24584" d="M457.215 209.2a3.124 3.124 0 0 1-6.075.194" transform="translate(-109.996 -166.94)" style="stroke:#333;stroke-miterlimit:10;stroke-width:1.3px;stroke-linecap:round;fill:none"/>
        </g>
        <circle data-name="타원 9" cx="3" cy="3" r="3" transform="translate(346 28)" style="fill:#f68722"/>
    </g>
</svg>
