<svg xmlns="http://www.w3.org/2000/svg" width="52" height="52" viewBox="0 0 52 52">
    <g data-name="패스 25960" style="fill:none">
        <path d="M26 0A26 26 0 1 1 0 26 26 26 0 0 1 26 0z" style="stroke:none"/>
        <path d="M26 3A22.927 22.927 0 0 0 9.737 9.737 22.927 22.927 0 0 0 3 26a22.927 22.927 0 0 0 6.737 16.263A22.927 22.927 0 0 0 26 49a22.927 22.927 0 0 0 16.263-6.737A22.927 22.927 0 0 0 49 26a22.927 22.927 0 0 0-6.737-16.263A22.927 22.927 0 0 0 26 3m0-3c14.36 0 26 11.64 26 26S40.36 52 26 52 0 40.36 0 26 11.64 0 26 0z" style="fill:#ededed;stroke:none"/>
    </g>
    <g data-name="빼기 1" style="stroke-linejoin:round;fill:#ededed">
        <path d="M2.78 33.083H2.78l-2.78-.002H-.1v-1.417c0-6.283 5.387-11.395 12.01-11.395h5.259c6.621 0 12.009 5.112 12.009 11.395v1.415h-.1l-2.78.002h-.1v-1.417c0-4.72-4.051-8.56-9.03-8.56H11.91c-4.978 0-9.028 3.84-9.028 8.56v1.417l-.1.002zM14.54 17.702c-2.594 0-4.973-.902-6.7-2.54-1.728-1.639-2.68-3.898-2.68-6.361 0-2.463.952-4.723 2.68-6.362C9.566.802 11.945-.1 14.54-.1c2.594 0 4.973.902 6.7 2.54 1.728 1.638 2.68 3.898 2.68 6.36 0 2.143-.695 3.85-1.29 4.66l-.002.003-.002.002-.01.012c-1.964 2.764-4.756 4.225-8.076 4.225zm0-14.965c-3.708 0-6.399 2.55-6.399 6.064 0 3.513 2.691 6.063 6.399 6.063s6.399-2.55 6.399-6.063c0-3.514-2.691-6.064-6.4-6.064z" style="stroke:none" transform="translate(11.685 13.184)"/>
        <path d="M2.78 32.983v-1.319c0-4.775 4.096-8.66 9.13-8.66h5.259c5.033 0 9.128 3.885 9.128 8.66v1.317l2.78-.002v-1.315c0-6.228-5.342-11.295-11.908-11.295h-5.26C5.342 20.37 0 25.436 0 31.664v1.317l2.78.002M14.54 17.602c3.287 0 6.052-1.448 7.997-4.186l.012-.015c.586-.798 1.27-2.482 1.27-4.6 0-2.436-.94-4.67-2.648-6.289C19.462.892 17.107 0 14.539 0 11.97 0 9.616.892 7.908 2.512 6.2 4.132 5.259 6.365 5.259 8.801c0 2.435.941 4.669 2.649 6.289 1.708 1.62 4.063 2.512 6.63 2.512m0-14.965c3.767 0 6.5 2.592 6.5 6.164 0 3.571-2.733 6.163-6.5 6.163-3.765 0-6.498-2.592-6.498-6.163 0-3.572 2.733-6.164 6.499-6.164M2.78 33.183 0 33.18a.2.2 0 0 1-.2-.2v-1.317c0-6.338 5.432-11.495 12.11-11.495h5.259c6.677 0 12.109 5.157 12.109 11.495v1.315a.2.2 0 0 1-.2.2l-2.78.002a.2.2 0 0 1-.2-.2v-1.317c0-4.664-4.006-8.46-8.93-8.46H11.91c-4.923 0-8.928 3.796-8.928 8.46v1.317c0 .11-.09.202-.2.202zm11.758-15.381c-2.62 0-5.023-.912-6.769-2.567-1.748-1.658-2.71-3.943-2.71-6.434s.962-4.776 2.71-6.434C9.516.712 11.92-.2 14.54-.2c2.62 0 5.023.912 6.768 2.567 1.749 1.658 2.711 3.943 2.711 6.434 0 2.166-.705 3.896-1.309 4.719a.2.2 0 0 1-.006.009l-.008.009c-1.984 2.79-4.804 4.264-8.156 4.264zm0-14.965c-3.65 0-6.299 2.508-6.299 5.964 0 3.455 2.65 5.963 6.299 5.963 3.65 0 6.299-2.508 6.299-5.963 0-3.456-2.65-5.964-6.3-5.964z" style="fill:#ededed;stroke:none" transform="translate(11.685 13.184)"/>
    </g>
    <circle data-name="타원 5" cx="8.08" cy="8.08" r="8.08" transform="translate(18.975 12.649)" style="fill:none"/>
    <g data-name="그룹 268" transform="translate(-162.5 -310.5)">
        <circle data-name="타원 38" cx="8" cy="8" r="8" transform="translate(198 346)" style="fill:#ededed"/>
        <path data-name="패스 25961" d="M18.842 5.368h-1.457V8.5h-3.136v1.46h3.136v3.14h1.457V9.962h3.136V8.5h-3.136z" transform="translate(187.887 344.766)" style="fill:#fff"/>
    </g>
</svg>
